<?xml version="1.0" encoding="UTF-8" standalone="no"?>
<!-- Created with Inkscape (http://www.inkscape.org/) -->

<svg
   version="1.1"
   id="svg2"
   width="287.24399"
   height="249.44933"
   viewBox="0 0 287.24399 249.44933"
   sodipodi:docname="PLANTILLA  76 * 66.svg"
   inkscape:version="1.2.2 (b0a8486541, 2022-12-01)"
   xmlns:inkscape="http://www.inkscape.org/namespaces/inkscape"
   xmlns:sodipodi="http://sodipodi.sourceforge.net/DTD/sodipodi-0.dtd"
   xmlns="http://www.w3.org/2000/svg"
   xmlns:svg="http://www.w3.org/2000/svg">
  <defs
     id="defs6">
    <clipPath
       clipPathUnits="userSpaceOnUse"
       id="clipPath180">
      <path
         d="M 0,187.087 H 215.433 V 0 H 0 Z"
         id="path178" />
    </clipPath>
    <clipPath
       clipPathUnits="userSpaceOnUse"
       id="clipPath198">
      <path
         d="M 0,187.087 H 215.433 V 0 H 0 Z"
         id="path196" />
    </clipPath>
    <clipPath
       clipPathUnits="userSpaceOnUse"
       id="clipPath232">
      <path
         d="M 0,187.087 H 215.433 V 0 H 0 Z"
         id="path230" />
    </clipPath>
  </defs>
  <sodipodi:namedview
     id="namedview4"
     pagecolor="#ffffff"
     bordercolor="#000000"
     borderopacity="0.25"
     inkscape:showpageshadow="2"
     inkscape:pageopacity="0.0"
     inkscape:pagecheckerboard="0"
     inkscape:deskcolor="#d1d1d1"
     showgrid="false"
     inkscape:zoom="7.7489221"
     inkscape:cx="171.4432"
     inkscape:cy="-30.520374"
     inkscape:window-width="1854"
     inkscape:window-height="1011"
     inkscape:window-x="66"
     inkscape:window-y="197"
     inkscape:window-maximized="1"
     inkscape:current-layer="g228">
    <inkscape:page
       x="0"
       y="0"
       id="page8"
       width="287.24399"
       height="249.44933" />
  </sodipodi:namedview>
  <g
     id="g10"
     inkscape:groupmode="layer"
     inkscape:label="Page 1"
     transform="matrix(1.3333333,0,0,-1.3333333,0,249.44933)">
    <path
       d="m 168.767,36.982 h -6.207 v 2.102 h 6.207 z"
       style="fill:#5c268f;fill-opacity:1;fill-rule:nonzero;stroke:none"
       id="path110" />
    <path
       d="m 162.56,36.982 h -6.208 v 2.102 h 6.208 z"
       style="fill:#d9115a;fill-opacity:1;fill-rule:nonzero;stroke:none"
       id="path112" />
    <path
       d="m 174.974,36.982 h -6.207 v 2.102 h 6.207 z"
       style="fill:#3972c2;fill-opacity:1;fill-rule:nonzero;stroke:none"
       id="path114" />
    <path
       d="m 181.182,36.982 h -6.208 v 2.102 h 6.208 z"
       style="fill:#46a0de;fill-opacity:1;fill-rule:nonzero;stroke:none"
       id="path116" />
    <path
       d="m 193.402,36.982 h -6.207 v 2.102 h 6.207 z"
       style="fill:#41b93d;fill-opacity:1;fill-rule:nonzero;stroke:none"
       id="path118" />
    <path
       d="m 187.389,36.982 h -6.207 v 2.102 h 6.207 z"
       style="fill:#3baa9a;fill-opacity:1;fill-rule:nonzero;stroke:none"
       id="path120" />
    <path
       d="m 199.609,36.982 h -6.207 v 2.102 h 6.207 z"
       style="fill:#f9a82b;fill-opacity:1;fill-rule:nonzero;stroke:none"
       id="path122" />
    <path
       d="m 211.44475,136.06028 h -69.00479 v 8.52214 h 69.00479 z"
       style="fill:none;stroke:#00adef;stroke-width:0.699617;stroke-linecap:butt;stroke-linejoin:miter;stroke-miterlimit:10;stroke-dasharray:none;stroke-opacity:1"
       id="path132" />
    <path
       d="m 211.37889,144.56134 h -68.97702 v 17.46964 h 68.97702 z"
       style="fill:none;stroke:#00adef;stroke-width:0.69900002;stroke-linecap:butt;stroke-linejoin:miter;stroke-miterlimit:10;stroke-dasharray:none;stroke-opacity:1"
       id="path134" />
    <g
       id="g136"
       transform="translate(142.2755,3.7397)"
       style="stroke-width:0.69900002;stroke-dasharray:none">
      <path
         d="M 0,0 V 128.788"
         style="fill:none;stroke:#00adef;stroke-width:0.69900002;stroke-linecap:butt;stroke-linejoin:miter;stroke-miterlimit:10;stroke-dasharray:none;stroke-opacity:1"
         id="path138" />
    </g>
    <g
       id="g158"
       transform="translate(151.6387,95.1928)">
      <path
         d="M 0,0 -7.611,7.611 0,15.223 7.611,7.611 Z"
         style="fill:none;stroke:#c01c2e;stroke-width:0.544;stroke-linecap:butt;stroke-linejoin:miter;stroke-miterlimit:10;stroke-dasharray:none;stroke-opacity:1"
         id="path160" />
    </g>
    <g
       id="g162"
       transform="translate(151.711,110.4027)">
      <path
         d="M 0,0 -7.611,7.611 0,15.223 7.611,7.611 Z"
         style="fill:none;stroke:#c01c2e;stroke-width:0.544;stroke-linecap:butt;stroke-linejoin:miter;stroke-miterlimit:10;stroke-dasharray:none;stroke-opacity:1"
         id="path164" />
    </g>
    <g
       id="g166"
       transform="translate(151.7911,79.6786)">
      <path
         d="M 0,0 -7.611,7.612 0,15.223 7.611,7.612 Z"
         style="fill:none;stroke:#c01c2e;stroke-width:0.544;stroke-linecap:butt;stroke-linejoin:miter;stroke-miterlimit:10;stroke-dasharray:none;stroke-opacity:1"
         id="path168" />
    </g>
    <text
       xml:space="preserve"
       transform="matrix(0.99489752,0,0,-1,143.8936,163.0298)"
       style="font-variant:normal;font-weight:normal;font-stretch:normal;font-size:7.0358px;font-family:Montserrat;-inkscape-font-specification:Montserrat-Regular;writing-mode:lr-tb;fill:#00adef;fill-opacity:1;fill-rule:nonzero;stroke:none"
       id="text220"><tspan
         x="0 6.7191892 11.777929 16.780382 21.487333 27.207439 32.927544 37.972214 39.815594 45.254265 50.341148 56.244186 61.81654"
         y="0"
         sodipodi:role="line"
         id="tspan218">MCKENNA GROUP</tspan></text>
    <text
       xml:space="preserve"
       transform="matrix(0.99490276,0,0,-1,209.6621,166.938)"
       style="font-variant:normal;font-weight:bold;font-stretch:normal;font-size:3.0801px;font-family:Montserrat;-inkscape-font-specification:Montserrat-Bold;writing-mode:lr-tb;fill:#00adef;fill-opacity:1;fill-rule:nonzero;stroke:none"
       id="text224"><tspan
         x="0"
         y="0"
         id="tspan222">®</tspan></text>
    <g
       id="g226"
       transform="matrix(0.99636454,0,0,1,0.4498602,0.11050319)">
      <g
         id="g228"
         clip-path="url(#clipPath232)">
        <g
           id="g234"
           transform="translate(178.0196,183.7729)">
          <path
             d="M 0,0 C 0.353,0.644 1.189,1.5 1.935,1.632 1.907,1.678 1.88,1.725 1.853,1.771 0.739,0.668 1.045,-1.137 1.641,-2.399 2.313,-3.827 2.74,-5.39 2.593,-6.981 2.46,-8.413 1.903,-9.789 1.208,-11.034 c -0.33,-0.592 -0.76,-1.547 -1.312,-1.975 -0.093,-0.074 0.123,-0.056 0.058,-0.012 -0.069,0.046 -0.141,0.184 -0.191,0.252 -0.23,0.313 -0.445,0.637 -0.649,0.967 -1.561,2.523 -2.327,5.345 -1.329,8.237 0.431,1.248 1.193,2.349 1.002,3.73 C -1.291,0.732 -1.521,1.359 -1.938,1.771 -1.966,1.725 -1.992,1.678 -2.02,1.632 -1.327,1.51 -0.604,0.793 -0.253,0.209 0.19,-0.527 0.349,-1.558 0.389,-2.391 0.463,-3.951 0.26,-5.568 -0.101,-7.086 h 0.162 c -0.616,2.234 -0.88,4.904 -0.052,7.106 0.037,0.101 -0.124,0.145 -0.162,0.044 -0.84,-2.232 -0.572,-4.93 0.052,-7.195 0.022,-0.078 0.142,-0.082 0.162,0 0.418,1.758 0.694,3.743 0.415,5.535 -0.205,1.319 -0.928,3.121 -2.452,3.389 -0.078,0.014 -0.144,-0.077 -0.081,-0.14 0.772,-0.764 0.828,-2.054 0.553,-3.033 -0.25,-0.893 -0.755,-1.697 -1.016,-2.594 -0.251,-0.86 -0.385,-1.768 -0.348,-2.665 0.095,-2.337 1.276,-4.731 2.728,-6.533 0.028,-0.033 0.092,-0.032 0.119,0 1.482,1.789 2.705,4.186 2.803,6.533 0.038,0.898 -0.099,1.804 -0.347,2.665 -0.249,0.863 -0.719,1.629 -0.982,2.48 C 1.143,-0.488 1.168,0.857 1.971,1.653 2.034,1.716 1.968,1.807 1.89,1.793 1.083,1.651 0.232,0.772 -0.145,0.084 -0.196,-0.01 -0.052,-0.095 0,0 Z"
             style="fill:none;stroke:#00adef;stroke-width:0.221;stroke-linecap:butt;stroke-linejoin:miter;stroke-miterlimit:10;stroke-dasharray:none;stroke-opacity:1"
             id="path236" />
        </g>
        <g
           id="g238"
           transform="translate(168.793,180.1254)">
          <path
             d="m 0,0 c -0.744,0.233 -1.982,0.265 -2.65,-0.201 -0.067,-0.046 -0.046,-0.156 0.042,-0.156 2.314,-0.006 2.767,-2.801 3.616,-4.373 1.304,-2.418 3.578,-3.755 6.168,-4.443 0.655,-0.175 1.328,-0.322 2.004,-0.392 0.042,-0.005 0.088,0.042 0.084,0.083 -0.158,1.66 -0.66,3.361 -1.428,4.836 C 7.178,-3.382 6.245,-2.335 5.05,-1.555 3.841,-0.765 2.259,-0.522 1.21,0.486 0.699,0.978 0.256,1.724 0.271,2.459 0.272,2.549 0.16,2.564 0.114,2.502 -0.267,1.98 -0.279,1.158 -0.229,0.549 c 0.074,-0.882 0.591,-1.713 1.118,-2.399 1.054,-1.373 2.547,-2.532 4.008,-3.453 0.074,-0.046 0.154,0.044 0.115,0.115 -1.13,2.046 -2.835,4.186 -4.992,5.18 -0.097,0.045 -0.182,-0.1 -0.084,-0.145 2.133,-0.984 3.813,-3.096 4.931,-5.12 0.038,0.039 0.076,0.077 0.114,0.115 -1.283,0.809 -2.516,1.795 -3.542,2.914 -0.606,0.663 -1.299,1.589 -1.466,2.503 -0.12,0.653 -0.122,1.599 0.286,2.158 L 0.104,2.459 C 0.069,0.774 1.719,-0.235 3.083,-0.748 4.646,-1.335 6.095,-2.317 7.063,-3.693 7.824,-4.772 8.324,-6.021 8.669,-7.291 8.861,-7.998 9,-8.715 9.092,-9.442 c 0.011,-0.082 0.138,0.036 0.038,0.049 -0.106,0.015 -0.211,0.028 -0.317,0.044 -0.376,0.058 -0.751,0.133 -1.124,0.22 -2.827,0.66 -5.321,2.054 -6.667,4.73 -0.63,1.257 -0.84,2.704 -2.03,3.599 -0.444,0.334 -1.032,0.609 -1.6,0.61 0.013,-0.052 0.028,-0.104 0.042,-0.156 0.623,0.434 1.825,0.403 2.521,0.185 C 0.059,-0.193 0.103,-0.032 0,0 Z"
             style="fill:none;stroke:#00adef;stroke-width:0.221;stroke-linecap:butt;stroke-linejoin:miter;stroke-miterlimit:10;stroke-dasharray:none;stroke-opacity:1"
             id="path240" />
        </g>
        <g
           id="g242"
           transform="translate(163.1993,169.5648)">
          <path
             d="M 0,0 C 0.303,0.535 1.298,0.888 1.81,1.084 2.776,1.454 3.824,1.555 4.853,1.538 6.15,1.517 7.48,1.33 8.729,0.968 V 1.129 C 7.213,0.766 5.595,0.56 4.035,0.632 3.197,0.671 2.173,0.825 1.435,1.268 0.843,1.623 0.133,2.334 0.008,3.033 -0.038,3.006 -0.085,2.979 -0.132,2.952 1.75,1.059 4.507,3.205 6.507,3.586 9.406,4.14 12.45,2.865 14.697,1.06 14.78,0.993 14.899,1.111 14.815,1.178 13.011,2.628 10.614,3.805 8.277,3.896 7.379,3.932 6.474,3.793 5.612,3.543 4.751,3.292 3.985,2.822 3.135,2.558 2.13,2.246 0.784,2.268 -0.014,3.07 -0.076,3.133 -0.167,3.067 -0.153,2.988 0.117,1.465 1.921,0.747 3.24,0.543 5.033,0.267 7.017,0.546 8.774,0.968 8.856,0.987 8.852,1.107 8.774,1.129 7.319,1.551 5.739,1.756 4.228,1.7 3.175,1.66 2.158,1.453 1.203,0.999 0.793,0.804 0.103,0.521 -0.145,0.084 -0.198,-0.009 -0.054,-0.094 0,0 Z"
             style="fill:none;stroke:#00adef;stroke-width:0.221;stroke-linecap:butt;stroke-linejoin:miter;stroke-miterlimit:10;stroke-dasharray:none;stroke-opacity:1"
             id="path244" />
        </g>
        <g
           id="g246"
           transform="translate(192.9073,169.6493)">
          <path
             d="m 0,0 c -0.23,0.406 -0.855,0.674 -1.238,0.862 -0.988,0.486 -2.038,0.712 -3.135,0.753 -1.512,0.056 -3.092,-0.149 -4.546,-0.57 -0.077,-0.023 -0.083,-0.142 0,-0.162 1.757,-0.421 3.741,-0.7 5.534,-0.424 1.319,0.203 3.123,0.922 3.393,2.445 0.014,0.078 -0.076,0.145 -0.14,0.081 -0.765,-0.77 -2.056,-0.823 -3.034,-0.547 -0.893,0.252 -1.695,0.758 -2.592,1.02 -0.86,0.252 -1.767,0.389 -2.665,0.354 -2.336,-0.092 -4.732,-1.269 -6.537,-2.718 -0.084,-0.068 0.035,-0.186 0.118,-0.119 2.247,1.806 5.29,3.08 8.19,2.527 C -4.651,3.12 -1.896,0.974 -0.014,2.867 -0.06,2.894 -0.106,2.921 -0.153,2.949 -0.276,2.256 -0.994,1.535 -1.579,1.184 -2.315,0.742 -3.347,0.586 -4.181,0.548 -5.74,0.476 -7.357,0.681 -8.875,1.045 V 0.883 c 1.25,0.363 2.58,0.55 3.878,0.571 C -3.97,1.47 -2.92,1.371 -1.955,1 -1.45,0.805 -0.445,0.446 -0.145,-0.084 -0.092,-0.178 0.053,-0.094 0,0 Z"
             style="fill:none;stroke:#00adef;stroke-width:0.221;stroke-linecap:butt;stroke-linejoin:miter;stroke-miterlimit:10;stroke-dasharray:none;stroke-opacity:1"
             id="path248" />
        </g>
        <g
           id="g250"
           transform="translate(187.1797,179.9643)">
          <path
             d="m 0,0 c 0.701,0.219 1.894,0.253 2.521,-0.185 0.015,0.052 0.029,0.104 0.042,0.156 -1.685,-0.004 -2.658,-1.672 -3.14,-3.05 -0.549,-1.568 -1.491,-3.039 -2.84,-4.033 -1.052,-0.776 -2.284,-1.291 -3.535,-1.652 -0.731,-0.211 -1.47,-0.309 -2.209,-0.465 -0.111,-0.024 0.022,-0.086 0.023,-0.063 0.003,0.094 0.023,0.19 0.035,0.283 0.051,0.368 0.119,0.734 0.198,1.097 0.62,2.846 1.976,5.398 4.63,6.808 1.241,0.66 2.683,0.902 3.552,2.111 0.325,0.451 0.586,1.046 0.576,1.614 C -0.2,2.606 -0.252,2.592 -0.304,2.578 0.104,2.02 0.103,1.073 -0.017,0.42 c -0.168,-0.914 -0.86,-1.839 -1.467,-2.503 -1.026,-1.119 -2.258,-2.105 -3.542,-2.914 0.038,-0.038 0.076,-0.076 0.114,-0.115 1.118,2.024 2.799,4.137 4.932,5.12 0.097,0.045 0.012,0.19 -0.084,0.145 -2.157,-0.994 -3.863,-3.133 -4.993,-5.18 -0.039,-0.071 0.042,-0.161 0.115,-0.115 1.463,0.922 2.953,2.08 4.008,3.454 0.506,0.657 1.027,1.473 1.11,2.318 0.062,0.631 0.06,1.491 -0.335,2.033 -0.046,0.063 -0.158,0.047 -0.156,-0.042 0.011,-0.59 -0.287,-1.203 -0.644,-1.651 -0.896,-1.123 -2.364,-1.35 -3.563,-2.018 -2.425,-1.348 -3.753,-3.665 -4.419,-6.289 -0.165,-0.649 -0.304,-1.315 -0.368,-1.984 -0.004,-0.041 0.042,-0.088 0.084,-0.083 1.655,0.172 3.348,0.688 4.812,1.471 1.241,0.664 2.264,1.594 3.021,2.784 0.375,0.588 0.683,1.221 0.923,1.877 0.269,0.733 0.512,1.445 1.037,2.042 0.481,0.546 1.239,1.032 1.995,1.034 0.088,0 0.109,0.11 0.043,0.156 C 1.94,0.424 0.697,0.394 -0.045,0.161 -0.147,0.129 -0.104,-0.033 0,0 Z"
             style="fill:none;stroke:#00adef;stroke-width:0.221;stroke-linecap:butt;stroke-linejoin:miter;stroke-miterlimit:10;stroke-dasharray:none;stroke-opacity:1"
             id="path252" />
        </g>
        <g
           id="g254"
           transform="matrix(0.99982047,0,0,1,4.2745051,170.69499)"
           style="stroke-width:0.700274;stroke-dasharray:none">
          <path
             d="M 0,0 H 138.777"
             style="fill:none;stroke:#00adef;stroke-width:0.700274;stroke-linecap:butt;stroke-linejoin:miter;stroke-miterlimit:10;stroke-dasharray:none;stroke-opacity:1"
             id="path256" />
        </g>
        <g
           id="g258"
           transform="matrix(0.99450092,0,0,1,4.6452615,152.995)"
           style="stroke-width:0.700274;stroke-dasharray:none">
          <path
             d="M 0,0.14588913 H 208.60985"
             style="fill:none;stroke:#00adef;stroke-width:0.700274;stroke-linecap:butt;stroke-linejoin:miter;stroke-miterlimit:10;stroke-dasharray:none;stroke-opacity:1"
             id="path260" />
        </g>
        <g
           id="g262"
           transform="matrix(0.66433045,0,0,1,4.4064443,161.8415)"
           style="stroke:#00adef;stroke-width:0.855933;stroke-dasharray:none;stroke-opacity:1">
          <path
             d="M 0,0 H 207.927"
             style="fill:none;stroke:#00adef;stroke-width:0.855933;stroke-linecap:butt;stroke-linejoin:miter;stroke-miterlimit:10;stroke-dasharray:none;stroke-opacity:1"
             id="path264" />
        </g>
      </g>
    </g>
  </g>
</svg>
